<?xml version="1.0" encoding="utf-8"?>
<svg width="24"
  height="24"
  viewBox="14 14 50 50"
  xmlns="http://www.w3.org/2000/svg">
  <path fill="none" stroke="currentColor" stroke-width="3.5" stroke-linecap="round"
    stroke-linejoin="round"
    d="M 53.833 26.917 C 57.331 26.917 60.167 29.752 60.167 33.25 L 60.167 42.75 C 60.167 46.248 57.331 49.083 53.833 49.083 L 38 49.083 C 38 49.958 38.709 50.667 39.583 50.667 L 49.084 50.667 L 49.084 53.833 C 49.084 57.331 46.248 60.167 42.75 60.167 L 33.25 60.167 C 29.752 60.167 26.917 57.331 26.917 53.833 L 26.917 45.521 C 26.917 42.023 29.752 39.188 33.25 39.188 L 44.333 39.187 C 47.831 39.187 50.667 36.352 50.667 32.854 L 50.667 26.917 L 53.833 26.917 Z M 22.167 49.083 C 18.669 49.083 15.834 46.248 15.834 42.75 L 15.834 33.25 C 15.834 29.752 18.669 26.917 22.167 26.917 L 38 26.917 C 38 26.042 37.291 25.333 36.417 25.333 L 26.917 25.333 L 26.917 22.167 C 26.917 18.669 29.752 15.833 33.25 15.833 L 42.75 15.833 C 46.248 15.833 49.083 18.669 49.083 22.167 L 49.083 30.479 C 49.083 33.977 46.248 36.813 42.75 36.813 L 31.667 36.813 C 28.169 36.813 25.334 39.648 25.334 43.146 L 25.334 49.083 L 22.167 49.083 Z" />
</svg>